<?xml version="1.0" standalone="no"?><!DOCTYPE svg PUBLIC "-//W3C//DTD SVG 1.1//EN" "http://www.w3.org/Graphics/SVG/1.1/DTD/svg11.dtd"><svg t="1503384208490" class="icon" style="" viewBox="0 0 2858 1024" version="1.1" xmlns="http://www.w3.org/2000/svg" p-id="20129" xmlns:xlink="http://www.w3.org/1999/xlink" width="357.25" height="128"><defs><style type="text/css"></style></defs><path d="M2484.582996 450.110142l204.777404-450.109692H2366.564234L2149.611363 450.110142h-1.575384L1986.671654 771.612243h548.739979v192.905761H2858.196546V0.00045s-156.300591 0.281319-152.699713 0c5.918942-0.472615-170.096453 378.384713-170.096453 378.384713V450.110142h-50.817384zM871.547397 450.110142V0.00045S715.246806 0.281769 718.825179 0.00045c5.930195-0.472615-170.0852 378.384713-170.0852 378.384713V450.110142H497.933847L702.699999 0.00045H379.89258L162.973467 450.110142h-1.575384L0 771.612243h548.751231v192.905761h322.796166V450.110142z m1063.789247 446.587584a73.300363 73.300363 0 0 1 0 103.975339 74.110561 74.110561 0 0 1-104.47046 0l-104.459207-103.975339a73.030298 73.030298 0 0 1-15.269971-22.516737A483.901677 483.901677 0 0 1 1429.098273 964.360466c-267.62397 0-484.576842-215.850103-484.576842-482.112492C944.521431 215.996839 1161.474303 0.146736 1429.098273 0.146736s484.565589 215.850103 484.565589 482.112491c0 111.908522-38.428115 214.814851-102.726284 296.644793 7.156744 3.477097 13.987159 7.87692 19.928606 13.795862l104.47046 103.997844zM1429.098273 96.503968c-214.015906 0-387.52194 172.707089-387.52194 385.744006 0 213.059423 173.517286 385.777764 387.52194 385.777765 214.027159 0 387.510687-172.729594 387.510687-385.766512 0-213.04817-173.494781-385.755259-387.510687-385.755259z m-251.071186 385.755259h-63.645511c0-175.756582 143.112377-318.227552 319.645398-318.227552v63.64551h-0.180044c-141.289432 0-255.819844 113.99028-255.819843 254.582042z" fill="#387BEE" p-id="20130"></path></svg>