<?xml version="1.0" standalone="no"?><!DOCTYPE svg PUBLIC "-//W3C//DTD SVG 1.1//EN" "http://www.w3.org/Graphics/SVG/1.1/DTD/svg11.dtd"><svg t="1503314814613" class="icon" style="" viewBox="0 0 2048 1024" version="1.1" xmlns="http://www.w3.org/2000/svg" p-id="4310" xmlns:xlink="http://www.w3.org/1999/xlink" width="128" height="64"><defs><style type="text/css"></style></defs><path d="M741.533538 527.911385v-132.804923h54.823385v132.804923h39.699692V360.448h-113.58523V330.830769h271.911384v28.987077h-103.502769v59.549539h92.632615v32.452923h-92.632615v75.460923h103.502769v28.987077H722.471385v-28.356923zM1174.606769 320.905846v15.753846h109.016616v50.569846H1228.8V362.338462H1063.699692v23.630769h-52.932923v-50.097231h109.016616v-15.753846zM1011.081846 519.876923a241.348923 241.348923 0 0 0 109.331692-26.781538h-108.544v-30.089847h134.537847a48.521846 48.521846 0 0 0 2.205538-14.336v-60.494769h47.261539v60.809846a110.276923 110.276923 0 0 1-1.10277 14.020923h88.221539v30.247385h-77.193846L1271.650462 535.630769h11.027692L1276.061538 558.788923h-41.747692l-67.426461-47.261538c-34.028308 29.932308-94.523077 41.117538-155.805539 47.261538z m124.612923-128.393846l-8.979692 30.562461h-104.132923v-30.404923z m0 35.288615L1126.715077 456.861538h-104.132923v-29.932307zM1334.823385 558.473846v-155.648h-35.288616v-28.041846h35.288616v-23.000615h-34.500923v-25.993847H1417.846154l-13.075692 26.151385h-21.740308v23.000615h35.603692v28.041847h-35.603692v155.805538z m-34.500923 0v-145.565538h25.678769v145.565538z m91.844923 0v-145.565538H1417.846154v145.565538z m64.905846-163.367384l-31.507693-60.49477h45.213539l21.425231 39.227077h8.507077l-7.089231 21.267693z m1.417846 73.255384l-31.507692-60.809846h45.213538l21.425231 39.542154h8.507077l-7.089231 21.267692z m45.528615 90.112v-47.261538h-74.043077v-29.77477h73.885539V321.536h50.412308v159.901538h18.116923v29.617231h-18.116923v47.261539zM1683.928615 349.577846v29.617231h-21.897846v43.638154l21.897846-5.671385v33.083077l-21.897846 5.986462v102.557538h-56.713846l-10.712615-27.726769h17.486769v-61.755077l-24.103385 6.301538v-33.398153l24.103385-6.301539v-56.713846h-24.103385v-29.617231h24.103385v-26.781538h49.782154v26.781538zM1858.953846 409.6a162.107077 162.107077 0 0 1-48.836923 92.002462A200.704 200.704 0 0 0 1858.953846 519.876923v37.336615a222.444308 222.444308 0 0 1-82.392615-29.61723 217.088 217.088 0 0 1-81.289846 29.61723V519.876923a180.224 180.224 0 0 0 47.261538-18.432 166.675692 166.675692 0 0 1-39.699692-55.453538h47.261538a121.934769 121.934769 0 0 0 25.678769 30.562461 129.496615 129.496615 0 0 0 27.884308-38.912h-106.811077V409.6h55.138462v-31.507692h-61.597539v-30.089846h61.597539v-25.206154h47.261538v25.206154h61.597539V378.092308h-61.597539v31.507692z" fill="#d4237a" p-id="4311"></path><path d="M1906.215385 556.583385a2.993231 2.993231 0 0 1-2.678154 3.150769H1874.707692a2.993231 2.993231 0 0 1-2.678154-3.150769v-31.507693a2.993231 2.993231 0 0 1 2.678154-3.150769h27.72677a2.993231 2.993231 0 0 1 2.678153 3.150769z" fill="#d4237a" p-id="4312"></path><path d="M780.760615 630.153846h-13.075692a15.753846 15.753846 0 0 0-5.356308-11.972923 19.534769 19.534769 0 0 0-13.23323-4.253538 20.164923 20.164923 0 0 0-12.760616 3.623384 11.815385 11.815385 0 0 0-4.726154 9.767385q0 9.294769 20.322462 15.753846h2.363077a53.090462 53.090462 0 0 1 21.267692 10.397538 20.795077 20.795077 0 0 1 5.356308 15.753847 27.726769 27.726769 0 0 1-8.979692 21.897846 33.398154 33.398154 0 0 1-23.473231 7.876923 31.507692 31.507692 0 0 1-23.158154-8.192 31.507692 31.507692 0 0 1-9.294769-22.528h13.23323a18.747077 18.747077 0 0 0 5.19877 14.178461 20.637538 20.637538 0 0 0 14.808615 5.041231 21.110154 21.110154 0 0 0 13.705846-3.938461 13.705846 13.705846 0 0 0 4.883693-11.185231 12.918154 12.918154 0 0 0-1.10277-5.356308 11.500308 11.500308 0 0 0-2.99323-4.096 50.254769 50.254769 0 0 0-14.808616-6.144L740.430769 653.784615a37.809231 37.809231 0 0 1-15.753846-9.294769 20.322462 20.322462 0 0 1-4.726154-14.020923 24.891077 24.891077 0 0 1 8.349539-19.692308 37.336615 37.336615 0 0 1 44.268307 0 28.199385 28.199385 0 0 1 8.192 19.377231zM838.104615 656.462769h-12.288a15.753846 15.753846 0 0 0-3.780923-8.507077 9.924923 9.924923 0 0 0-7.404307-3.150769 11.657846 11.657846 0 0 0-10.082462 5.986462 29.144615 29.144615 0 0 0-3.938461 15.753846 29.774769 29.774769 0 0 0 3.780923 15.753846 11.500308 11.500308 0 0 0 10.24 5.986461 9.609846 9.609846 0 0 0 7.561846-3.465846 18.116923 18.116923 0 0 0 3.938461-9.609846h11.972923a27.096615 27.096615 0 0 1-7.404307 17.959385 22.370462 22.370462 0 0 1-15.753846 6.144 23.000615 23.000615 0 0 1-18.747077-8.822154 35.761231 35.761231 0 0 1-8.507077-23.788308 34.973538 34.973538 0 0 1 7.08923-23.000615 25.206154 25.206154 0 0 1 34.973539-3.150769 25.206154 25.206154 0 0 1 8.349538 15.911384zM846.611692 612.194462h11.500308v13.705846h-11.500308z m0 25.363692h11.500308v58.919384h-11.500308zM920.654769 670.011077h-41.432615a22.685538 22.685538 0 0 0 4.726154 14.178461 14.336 14.336 0 0 0 11.500307 5.041231 13.548308 13.548308 0 0 0 7.876923-2.363077 14.493538 14.493538 0 0 0 5.19877-6.616615h11.500307a25.993846 25.993846 0 0 1-8.822153 13.863385 23.945846 23.945846 0 0 1-15.753847 4.883692 26.466462 26.466462 0 0 1-20.795077-8.507077 33.713231 33.713231 0 0 1-7.561846-23.158154 34.658462 34.658462 0 0 1 7.404308-23.158154 24.260923 24.260923 0 0 1 19.534769-8.822154 23.158154 23.158154 0 0 1 19.062154 8.507077 37.336615 37.336615 0 0 1 6.774154 23.945846z m-11.815384-9.137231a21.267692 21.267692 0 0 0-4.568616-12.445538 12.918154 12.918154 0 0 0-10.24-4.411077 12.760615 12.760615 0 0 0-9.767384 4.411077 23.000615 23.000615 0 0 0-5.19877 12.288zM975.635692 658.195692v38.281846h-11.500307v-36.706461a18.589538 18.589538 0 0 0-2.363077-10.555077 8.192 8.192 0 0 0-7.24677-3.465846 10.870154 10.870154 0 0 0-9.767384 5.041231 26.781538 26.781538 0 0 0-3.308308 14.651077v31.507692H929.476923v-59.392h11.500308v9.767384a19.534769 19.534769 0 0 1 6.931692-8.979692 18.274462 18.274462 0 0 1 10.712615-3.150769 15.753846 15.753846 0 0 1 12.760616 5.828923 28.514462 28.514462 0 0 1 4.253538 17.171692zM1033.924923 656.462769h-12.288a15.753846 15.753846 0 0 0-3.780923-8.507077 9.924923 9.924923 0 0 0-7.404308-3.150769 11.657846 11.657846 0 0 0-10.082461 5.986462 29.144615 29.144615 0 0 0-3.938462 15.753846 29.774769 29.774769 0 0 0 3.780923 15.753846 11.500308 11.500308 0 0 0 10.24 5.986461 9.609846 9.609846 0 0 0 7.561846-3.465846 18.116923 18.116923 0 0 0 3.938462-9.609846h11.972923a27.096615 27.096615 0 0 1-7.404308 17.959385 22.370462 22.370462 0 0 1-15.753846 6.144 23.000615 23.000615 0 0 1-18.747077-8.822154 35.761231 35.761231 0 0 1-7.08923-23.158154 34.973538 34.973538 0 0 1 7.08923-23.000615 25.206154 25.206154 0 0 1 34.973539-3.15077 25.206154 25.206154 0 0 1 6.931692 15.281231zM1090.638769 670.011077h-41.275077a22.685538 22.685538 0 0 0 4.726154 14.178461 14.336 14.336 0 0 0 11.500308 5.041231 13.548308 13.548308 0 0 0 7.876923-2.363077 14.493538 14.493538 0 0 0 5.198769-6.616615h11.500308a25.993846 25.993846 0 0 1-8.822154 13.863385 23.945846 23.945846 0 0 1-15.753846 4.883692 26.466462 26.466462 0 0 1-20.795077-8.507077 33.713231 33.713231 0 0 1-7.561846-23.158154 34.658462 34.658462 0 0 1 7.404307-23.158154 24.260923 24.260923 0 0 1 19.53477-8.822154 23.158154 23.158154 0 0 1 19.062154 8.507077 37.336615 37.336615 0 0 1 6.774153 23.945846z m-11.815384-9.137231a21.267692 21.267692 0 0 0-4.568616-12.445538 12.918154 12.918154 0 0 0-10.24-4.411077 12.760615 12.760615 0 0 0-9.767384 4.411077 23.000615 23.000615 0 0 0-5.19877 12.288zM1172.716308 659.613538v21.267693a58.919385 58.919385 0 0 0 0 8.507077 37.021538 37.021538 0 0 0 1.732923 7.08923h-12.130462a41.905231 41.905231 0 0 1 0-4.253538v-4.726154a28.356923 28.356923 0 0 1-8.507077 8.664616 19.534769 19.534769 0 0 1-10.24 2.678153 17.171692 17.171692 0 0 1-13.23323-5.198769 19.692308 19.692308 0 0 1-4.883693-14.020923 21.425231 21.425231 0 0 1 0.945231-6.774154 15.753846 15.753846 0 0 1 2.993231-5.356307 31.507692 31.507692 0 0 1 19.219692-6.616616h2.835692a15.753846 15.753846 0 0 0 7.876923-2.520615 6.616615 6.616615 0 0 0 2.363077-5.513846 7.246769 7.246769 0 0 0-2.835692-5.986462 12.130462 12.130462 0 0 0-7.719385-2.205538 13.075692 13.075692 0 0 0-8.349538 2.520615 10.397538 10.397538 0 0 0-3.780923 7.089231h-11.815385a21.267692 21.267692 0 0 1 7.561846-13.863385 25.521231 25.521231 0 0 1 15.753847-4.568615 22.528 22.528 0 0 1 17.171692 5.671384 27.569231 27.569231 0 0 1 5.041231 18.116923z m-11.185231 3.465847a20.48 20.48 0 0 1-11.342769 5.356307h-2.835693a17.801846 17.801846 0 0 0-8.349538 3.938462 9.294769 9.294769 0 0 0-2.363077 6.774154 10.082462 10.082462 0 0 0 2.678154 7.404307 9.452308 9.452308 0 0 0 7.089231 2.678154 13.075692 13.075692 0 0 0 11.342769-5.356307 27.411692 27.411692 0 0 0 3.938461-15.753847v-4.883692zM1232.265846 658.195692v38.281846h-11.500308v-36.706461a18.589538 18.589538 0 0 0-2.363076-10.555077 8.192 8.192 0 0 0-7.24677-3.465846 10.870154 10.870154 0 0 0-9.767384 5.041231 26.781538 26.781538 0 0 0-3.308308 14.651077v31.507692h-11.500308v-59.392H1197.292308v9.767384a19.534769 19.534769 0 0 1 6.931692-8.979692 18.274462 18.274462 0 0 1 10.712615-3.150769 15.753846 15.753846 0 0 1 12.760616 5.828923 28.514462 28.514462 0 0 1 4.568615 17.171692zM1280.945231 606.050462H1291.815385v90.269538h-11.500308v-10.712615a21.267692 21.267692 0 0 1-6.931692 9.767384 17.801846 17.801846 0 0 1-10.870154 3.308308 18.904615 18.904615 0 0 1-15.753846-9.137231 44.583385 44.583385 0 0 1 0-45.843692 19.062154 19.062154 0 0 1 15.753846-8.979692 18.589538 18.589538 0 0 1 10.082461 2.678153 21.267692 21.267692 0 0 1 7.24677 8.192z m-13.548308 38.912a11.657846 11.657846 0 0 0-10.082461 5.828923 27.884308 27.884308 0 0 0-3.780924 15.753846 28.829538 28.829538 0 0 0 3.938462 15.753846 11.342769 11.342769 0 0 0 20.007385 0 28.987077 28.987077 0 0 0 3.780923-15.753846 28.356923 28.356923 0 0 0-3.780923-15.753846 11.500308 11.500308 0 0 0-10.082462-5.828923zM1328.994462 606.050462h59.549538v12.288h-23.158154v78.76923h-12.760615v-78.76923h-23.630769z" fill="#d4237a" p-id="4313"></path><path d="M1426.983385 670.011077H1386.338462a22.685538 22.685538 0 0 0 4.726153 14.178461 14.336 14.336 0 0 0 11.500308 5.041231 13.548308 13.548308 0 0 0 7.876923-2.363077 14.493538 14.493538 0 0 0 5.198769-6.616615h11.500308A25.993846 25.993846 0 0 1 1417.846154 693.169231a23.945846 23.945846 0 0 1-15.753846 4.883692 26.466462 26.466462 0 0 1-20.795077-8.507077 33.713231 33.713231 0 0 1-7.561846-23.158154 34.658462 34.658462 0 0 1 7.404307-23.158154 24.260923 24.260923 0 0 1 19.53477-8.822153 23.158154 23.158154 0 0 1 19.062153 8.507077 37.336615 37.336615 0 0 1 6.774154 23.945846z m-11.815385-9.137231a21.267692 21.267692 0 0 0-4.568615-12.445538 12.918154 12.918154 0 0 0-10.24-4.411077 12.760615 12.760615 0 0 0-9.767385 4.411077 23.000615 23.000615 0 0 0-5.198769 12.288zM1481.806769 656.462769h-12.288a15.753846 15.753846 0 0 0-3.780923-8.507077 9.924923 9.924923 0 0 0-7.404308-3.150769 11.657846 11.657846 0 0 0-10.082461 5.986462 29.144615 29.144615 0 0 0-3.938462 15.753846 29.774769 29.774769 0 0 0 3.780923 15.753846 11.500308 11.500308 0 0 0 10.24 5.986461 9.609846 9.609846 0 0 0 6.774154-2.99323 18.116923 18.116923 0 0 0 3.938462-9.609846h11.972923a27.096615 27.096615 0 0 1-6.616615 17.486769 22.370462 22.370462 0 0 1-15.753847 6.144 23.000615 23.000615 0 0 1-18.747077-8.822154 35.761231 35.761231 0 0 1-7.08923-23.158154 34.973538 34.973538 0 0 1 7.08923-23.000615 25.206154 25.206154 0 0 1 34.973539-3.15077 25.206154 25.206154 0 0 1 6.931692 15.281231zM1489.998769 606.050462h11.500308v41.117538a19.534769 19.534769 0 0 1 6.774154-8.979692 17.959385 17.959385 0 0 1 10.555077-3.15077 15.753846 15.753846 0 0 1 12.760615 5.828924 28.514462 28.514462 0 0 1 4.411077 17.171692v38.281846h-11.500308v-36.548923a18.589538 18.589538 0 0 0-2.363077-10.555077 8.192 8.192 0 0 0-7.246769-3.465846 10.870154 10.870154 0 0 0-9.767384 5.041231 26.781538 26.781538 0 0 0-3.308308 14.651077v31.507692h-11.500308zM1594.131692 658.195692v38.281846h-11.500307v-36.706461a18.589538 18.589538 0 0 0-2.363077-10.555077 8.192 8.192 0 0 0-7.24677-3.465846 10.870154 10.870154 0 0 0-9.767384 5.041231 26.781538 26.781538 0 0 0-3.308308 14.651077v31.507692h-11.342769v-59.392h11.027692v9.767384a19.534769 19.534769 0 0 1 6.931693-8.979692 18.274462 18.274462 0 0 1 10.712615-3.150769 15.753846 15.753846 0 0 1 12.760615 5.828923 28.514462 28.514462 0 0 1 4.096 17.171692zM1629.892923 635.037538a24.418462 24.418462 0 0 1 19.692308 8.664616 39.857231 39.857231 0 0 1 0 46.316308 26.466462 26.466462 0 0 1-39.227077 0 40.014769 40.014769 0 0 1 0-46.316308 24.418462 24.418462 0 0 1 19.534769-8.664616z m0 10.082462a12.130462 12.130462 0 0 0-10.555077 5.986462 28.829538 28.829538 0 0 0-3.938461 15.753846 28.199385 28.199385 0 0 0 3.938461 15.753846 12.760615 12.760615 0 0 0 21.267692 0 27.884308 27.884308 0 0 0 3.938462-15.753846 28.672 28.672 0 0 0-3.938462-15.753846 12.288 12.288 0 0 0-10.712615-5.19877zM1666.441846 606.050462h11.500308v90.269538h-11.500308zM1714.648615 635.037538a24.418462 24.418462 0 0 1 19.692308 8.664616 39.857231 39.857231 0 0 1 0 46.316308 26.466462 26.466462 0 0 1-39.227077 0 40.014769 40.014769 0 0 1 0-46.316308 24.418462 24.418462 0 0 1 19.534769-8.664616z m0 10.082462a12.130462 12.130462 0 0 0-10.555077 5.986462 28.829538 28.829538 0 0 0-3.938461 15.753846 28.199385 28.199385 0 0 0 3.938461 15.753846 12.760615 12.760615 0 0 0 21.267693 0 27.884308 27.884308 0 0 0 3.938461-15.753846 28.672 28.672 0 0 0-3.938461-15.753846 12.288 12.288 0 0 0-10.712616-5.19877zM1764.430769 705.614769a9.767385 9.767385 0 0 0 3.308308 6.774154 11.815385 11.815385 0 0 0 7.719385 2.205539 10.24 10.24 0 0 0 8.822153-3.938462 19.534769 19.534769 0 0 0 2.993231-11.657846v-10.870154a21.425231 21.425231 0 0 1-7.246769 8.349538 18.589538 18.589538 0 0 1-10.082462 2.678154 19.062154 19.062154 0 0 1-15.753846-8.979692 44.583385 44.583385 0 0 1 0-45.843692 18.904615 18.904615 0 0 1 15.753846-9.137231 18.116923 18.116923 0 0 1 10.870154 3.150769 20.795077 20.795077 0 0 1 6.931693 9.767385v-10.555077h11.500307v59.076923a29.459692 29.459692 0 0 1-6.301538 20.637538 29.774769 29.774769 0 0 1-34.973539 2.205539 19.377231 19.377231 0 0 1-6.616615-13.863385z m9.137231-60.022154a11.657846 11.657846 0 0 0-10.082462 5.986462 28.356923 28.356923 0 0 0-3.938461 15.753846 27.884308 27.884308 0 0 0 3.938461 15.753846 11.815385 11.815385 0 0 0 10.082462 5.986462 11.342769 11.342769 0 0 0 9.924923-5.986462 34.343385 34.343385 0 0 0 0-31.507692 11.500308 11.500308 0 0 0-10.397538-5.671385zM1803.500308 637.558154h12.918154l15.753846 45.213538 15.753846-45.213538h12.760615l-25.678769 69.316923a35.761231 35.761231 0 0 1-7.561846 13.390769 14.493538 14.493538 0 0 1-10.397539 3.938462h-4.411077l-4.411076-1.10277v-12.603076l3.465846 1.575384h2.835692a7.404308 7.404308 0 0 0 5.198769-1.890461 17.801846 17.801846 0 0 0 3.938462-6.459077l3.308307-8.034462z" fill="#d4237a" p-id="4314"></path><path d="M267.815385 699.470769h-56.39877a4.253538 4.253538 0 0 1-4.411077-3.938461v-367.064616a4.253538 4.253538 0 0 1 4.411077-3.938461h171.08677l-127.448616 248.280615 127.606154-106.968615 81.604923-158.798769a32.295385 32.295385 0 0 0-28.672-47.261539H211.416615A68.844308 68.844308 0 0 0 141.784615 328.467692v367.064616a68.844308 68.844308 0 0 0 69.001847 68.52923H267.815385a32.295385 32.295385 0 0 0 0-64.590769z" fill="#d4237a" p-id="4315"></path><path d="M473.875692 403.298462L247.335385 593.289846a32.295385 32.295385 0 0 0 41.432615 49.467077l109.016615-91.372308z" fill="#d4237a" p-id="4316"></path><path d="M577.693538 764.061538H353.516308a32.295385 32.295385 0 0 1-28.672-47.261538l167.305846-325.474462a32.295385 32.295385 0 0 1 57.501538 29.459693L406.449231 699.470769h171.244307a4.253538 4.253538 0 0 0 4.411077-3.938461v-367.064616a4.253538 4.253538 0 0 0-4.411077-3.938461h-56.083692a32.295385 32.295385 0 1 1 0-64.590769h55.926154A68.844308 68.844308 0 0 1 645.907692 328.467692v367.064616a68.844308 68.844308 0 0 1-68.214154 68.52923z" fill="#d4237a" p-id="4317"></path></svg>