<?xml version="1.0" standalone="no"?><!DOCTYPE svg PUBLIC "-//W3C//DTD SVG 1.1//EN" "http://www.w3.org/Graphics/SVG/1.1/DTD/svg11.dtd"><svg t="1503314863399" class="icon" style="" viewBox="0 0 1024 1024" version="1.1" xmlns="http://www.w3.org/2000/svg" p-id="5266" xmlns:xlink="http://www.w3.org/1999/xlink" width="64" height="64"><defs><style type="text/css"></style></defs><path d="M512 426.213171 512 426.213171c-15.071254 0-27.288506-12.217253-27.288506-27.288506l0-327.457983c0-15.071254 12.217253-27.288506 27.288506-27.288506l0 0c15.071254 0 27.288506 12.217253 27.288506 27.288506l0 327.457983C539.287483 413.994895 527.07023 426.213171 512 426.213171z" p-id="5267" fill="#ea9518"></path><path d="M648.440485 108.691491 648.440485 108.691491c0 10.618848 6.336312 19.97903 15.918551 24.555256 134.13293 64.065108 222.033909 209.884195 198.611453 372.614439-22.644743 157.327188-152.412248 282.476513-310.379003 300.114219C338.895477 829.835835 157.25351 662.48127 157.25351 453.500655c0-141.097552 82.83459-263.160585 202.40178-320.261071 9.573029-4.571109 15.903202-13.923104 15.903202-24.531719l0 0c0-19.892049-20.838607-33.238009-38.809911-24.708751-139.564639 66.237587-235.814774 208.795397-234.047524 373.971343 2.290159 214.122729 175.73135 394.380162 389.632021 404.391167 235.005338 10.997472 428.989401-176.276772 428.989401-408.861992 0-163.355485-95.862301-304.000736-234.277768-369.598756C669.144016 75.41869 648.440485 88.88233 648.440485 108.691491z" p-id="5268" fill="#ea9518"></path></svg>