<?xml version="1.0" standalone="no"?><!DOCTYPE svg PUBLIC "-//W3C//DTD SVG 1.1//EN"
        "http://www.w3.org/Graphics/SVG/1.1/DTD/svg11.dtd">
<svg t="1503381321603" class="icon" style="" viewBox="0 0 1024 1024" version="1.1" xmlns="http://www.w3.org/2000/svg"
     p-id="12425" xmlns:xlink="http://www.w3.org/1999/xlink" width="16" height="16">
    <defs>
        <style type="text/css"></style>
    </defs>
    <path d="M798.59 991l-129.051-0.3-1.802-17.041c-1.875-17.116-5.254-35.583-7.881-43.693-0.527-0.148-1.052-0.373-1.577-0.601-10.361 5.633-34.984 20.723-55.329 33.936l-14.862 9.609-94.291-122.746 15.014-11.711c6.082-4.729 20.344-16.364 30.555-26.201-8.781-3.3-28.076-8.633-46.245-12.46l-15.315-3.155-0.148-124.993 15.464-3.078c8.332-1.653 27.626-5.706 41.889-9.233-6.005-7.583-16.665-19.743-27.247-30.405l-11.562-11.711 91.439-123.944 15.688 13.137c16.143 13.437 35.435 28.828 46.021 36.411 2.554-0.977 5.178-1.877 7.808-2.63 0.9-2.699 8.256-25.824 11.936-46.469l2.852-15.991 124.396 1.053 3.907 13.813c5.178 18.393 12.309 40.387 16.437 49.848 0.753 0.301 1.505 0.452 2.181 0.749 10.432-7.279 30.105-22.67 46.391-36.183l15.545-12.761 92.635 123.416-13.889 11.715c-10.658 9.009-22.968 20.568-30.629 28.752 11.562 3.078 30.332 7.207 46.547 10.435L991 671.644l-0.297 124.993-15.318 3.155c-19.516 4.052-40.314 9.909-48.273 13.513-0.07 0.148-0.146 0.301-0.221 0.525 8.18 7.358 21.096 17.191 31.906 24.699l18.84 12.912L855.421 975.913l-13.737-13.665c-11.486-11.486-25.527-24.771-33.859-31.755-1.126 0.449-2.327 0.825-3.453 1.274-1.801 8.636-3.754 25.452-4.655 41.143L798.59 991zM703.771 952.339l58.857 0.151c4.203-45.419 11.938-51.501 22.221-54.652 6.006-1.953 11.939-4.131 17.721-6.683l7.283-3.303 7.504 2.927c2.781 1.053 9.533 3.752 37.615 30.705l63.66-64.789c-11.037-8.408-23.877-19.143-30.028-27.476l-6.833-9.309 4.955-10.358c2.327-4.956 4.502-9.912 6.455-15.091 2.555-6.833 6.158-16.442 59.084-28.903l0.146-62.46c-55.627-11.562-59.307-15.915-62.157-27.326-1.126-4.505-2.251-8.558-3.452-12.464l-2.402-7.731 3.825-7.132c5.557-10.361 20.868-25.524 32.88-36.483l-46.99-62.612c-15.395 12.312-36.111 28.228-44.746 32.432l-7.505 3.452-7.659-2.927c-4.731-1.803-9.758-3.528-15.014-5.029-8.408-2.026-15.164-3.752-31.906-60.358l-63.586-0.449c-12.389 54.653-30.105 59.154-36.26 60.808-3.527 1.052-7.807 2.627-12.087 4.58l-8.257 3.752-8.187-3.979c-8.557-4.204-29.05-20.269-44.442-32.805l-47.971 64.938c18.693 20.116 29.055 35.131 31.006 44.892l1.128 5.706-2.181 5.256c-1.35 3.301-2.551 6.756-3.677 10.135l-3.003 9.084-8.936 3.076c-10.21 3.53-30.402 8.107-44.74 11.187l0.148 62.46c21.32 5.105 43.693 11.86 52.551 19.668l5.405 7.807c1.726 4.881 3.679 9.609 5.854 14.266l5.031 10.811-7.434 9.309c-7.207 9.009-20.117 20.571-30.402 29.277l49.772 64.714c46.021-29.128 54.204-30.93 57.055-31.606l6.157-1.426 5.854 2.551c4.128 1.803 8.257 3.455 12.612 5.032C686.282 898.587 696.492 902.19 703.771 952.339zM419.249 929.817c-71.093 0-345.558-3.604-385.724-58.405-6.531-8.859-8.332-19.445-5.102-29.58l53.748-167.713c27.703-86.557 110.209-125.294 179.573-125.294L476.68 548.825l0 38.438L261.745 587.263c-41.364 0-118.011 20.793-142.938 98.57L66.032 850.392c18.694 17.565 141.812 40.84 359.747 40.988l0.152 38.438C423.978 929.817 421.727 929.817 419.249 929.817zM733.2 871.109c-75.821 0-137.457-61.557-137.457-137.381 0-75.674 61.636-137.382 137.457-137.382 75.749 0 137.388 61.708 137.388 137.382C870.588 809.553 808.949 871.109 733.2 871.109zM733.2 634.784c-54.577 0-99.02 44.442-99.02 98.944 0 54.576 44.442 98.943 99.02 98.943 54.58 0 98.95-44.367 98.95-98.943C832.15 679.227 787.78 634.784 733.2 634.784zM432.537 511.814c-119.516 0-228.296-111.56-228.296-234.078C204.241 152.667 319.929 30 437.791 30c116.512 0 230.85 121.317 230.85 244.96C668.641 394.477 551.677 511.814 432.537 511.814zM437.791 68.438c-94.816 0-195.113 107.577-195.113 209.299 0 100.6 92.266 195.641 189.859 195.641 99.771 0 197.666-98.271 197.666-198.416C630.203 172.635 533.135 68.438 437.791 68.438z"
          p-id="12426" fill="#ea9518"></path>
</svg>