<?xml version="1.0" standalone="no"?><!DOCTYPE svg PUBLIC "-//W3C//DTD SVG 1.1//EN" "http://www.w3.org/Graphics/SVG/1.1/DTD/svg11.dtd"><svg t="1503380763058" class="icon" style="" viewBox="0 0 1024 1024" version="1.1" xmlns="http://www.w3.org/2000/svg" p-id="11533" xmlns:xlink="http://www.w3.org/1999/xlink" width="16" height="16"><defs><style type="text/css"></style></defs><path d="M983.549701 183.402985c-127.363184 5.094527-122.268657 259.820896-152.835821 351.522388-40.756219 117.174129-137.552239 219.064677-270.00995 178.308458-112.079602-35.661692-188.497512-259.820896-326.049751-173.213931-91.701493 56.039801-142.646766 188.497512-163.024876 295.482588V952.676617h876.258707c20.378109 0 35.661692 15.283582 35.661691 35.661691 0 20.378109-15.283582 35.661692-35.661691 35.661692H35.967612c-20.378109-5.094527-35.661692-20.378109-35.661692-40.756219V35.661692C0.30592 15.283582 15.589502 0 35.967612 0s35.661692 15.283582 35.661691 35.661692v585.870646c25.472637-45.850746 56.039801-91.701493 96.79602-127.363184 117.174129-101.890547 244.537313-30.567164 326.049751 76.417911 50.945274 66.228856 152.835821 112.079602 224.159204 30.567164 50.945274-61.134328 66.228856-147.741294 81.512438-224.159204 25.472637-117.174129 50.945274-264.915423 188.497512-270.00995 40.756219 5.094527 40.756219 76.41791-5.094527 76.41791z" p-id="11534" fill="#ea9518"></path></svg>