<?xml version="1.0" standalone="no"?><!DOCTYPE svg PUBLIC "-//W3C//DTD SVG 1.1//EN" "http://www.w3.org/Graphics/SVG/1.1/DTD/svg11.dtd"><svg t="1503381366792" class="icon" style="" viewBox="0 0 1024 1024" version="1.1" xmlns="http://www.w3.org/2000/svg" p-id="13684" xmlns:xlink="http://www.w3.org/1999/xlink" width="16" height="16"><defs><style type="text/css"></style></defs><path d="M707.776 96l-39.152-78.32C663.2 6.848 652.112 0 640 0L384 0c-12.112 0-23.2 6.848-28.624 17.68L316.224 96 160 96C142.336 96 128 110.336 128 128l0 864c0 17.664 14.336 32 32 32l704 0c17.664 0 32-14.336 32-32L896 128c0-17.664-14.336-32-32-32L707.776 96zM403.776 64l216.448 0 64 128L339.776 192 403.776 64zM832 960 192 960 192 160l92.224 0-24.848 49.68c-4.96 9.92-4.432 21.696 1.408 31.136C266.608 250.256 276.912 256 288 256l448 0c0.112 0 0.208 0 0.32 0 17.664 0 32-14.336 32-32 0-6.688-2.048-12.896-5.552-18.016L739.776 160 832 160 832 960z" p-id="13685" fill="#ea9518"></path><path d="M736 352 448 352c-17.664 0-32 14.336-32 32s14.336 32 32 32l288 0c17.664 0 32-14.336 32-32S753.664 352 736 352z" p-id="13686" fill="#ea9518"></path><path d="M736 512 448 512c-17.664 0-32 14.336-32 32s14.336 32 32 32l288 0c17.664 0 32-14.336 32-32S753.664 512 736 512z" p-id="13687" fill="#ea9518"></path><path d="M736 672 448 672c-17.664 0-32 14.336-32 32s14.336 32 32 32l288 0c17.664 0 32-14.336 32-32S753.664 672 736 672z" p-id="13688" fill="#ea9518"></path><path d="M736 832 448 832c-17.664 0-32 14.336-32 32s14.336 32 32 32l288 0c17.664 0 32-14.336 32-32S753.664 832 736 832z" p-id="13689" fill="#ea9518"></path><path d="M320 352l-32 0c-17.664 0-32 14.336-32 32s14.336 32 32 32l32 0c17.664 0 32-14.336 32-32S337.664 352 320 352z" p-id="13690" fill="#ea9518"></path><path d="M320 512l-32 0c-17.664 0-32 14.336-32 32s14.336 32 32 32l32 0c17.664 0 32-14.336 32-32S337.664 512 320 512z" p-id="13691" fill="#ea9518"></path><path d="M320 672l-32 0c-17.664 0-32 14.336-32 32s14.336 32 32 32l32 0c17.664 0 32-14.336 32-32S337.664 672 320 672z" p-id="13692" fill="#ea9518"></path><path d="M320 832l-32 0c-17.664 0-32 14.336-32 32s14.336 32 32 32l32 0c17.664 0 32-14.336 32-32S337.664 832 320 832z" p-id="13693" fill="#ea9518"></path></svg>